<?xml version="1.0" encoding="UTF-8" standalone="no"?>
<!DOCTYPE svg PUBLIC "-//W3C//DTD SVG 1.1//EN" "http://www.w3.org/Graphics/SVG/1.1/DTD/svg11.dtd">
<svg version="1.1" xmlns="http://www.w3.org/2000/svg" xmlns:xlink="http://www.w3.org/1999/xlink" preserveAspectRatio="xMidYMid meet" viewBox="0 0 40 40" width="40" height="40"><defs><path d="M38.75 20.29C38.75 30.64 30.35 39.04 20 39.04C9.65 39.04 1.25 30.64 1.25 20.29C1.25 9.95 9.65 1.54 20 1.54C30.35 1.54 38.75 9.95 38.75 20.29Z" id="d4tv5xvU3w"></path><path d="M3.67 20.29C3.67 29.3 10.99 36.62 20 36.62C29.01 36.62 36.33 29.3 36.33 20.29C36.33 11.28 29.01 3.97 20 3.97C10.99 3.97 3.67 11.28 3.67 20.29Z" id="b2ZpE07RDG"></path><path d="M14.7 16.45C14.7 22.74 19.69 27.85 25.85 27.85C32 27.85 36.99 22.74 36.99 16.45C36.99 10.16 32 5.05 25.85 5.05C19.69 5.05 14.7 10.16 14.7 16.45Z" id="a5a90urRjN"></path></defs><g><g><g><use xlink:href="#d4tv5xvU3w" opacity="1" fill="#042327" fill-opacity="1"></use></g><g><use xlink:href="#b2ZpE07RDG" opacity="1" fill="#b59e7a" fill-opacity="1"></use></g><g><use xlink:href="#a5a90urRjN" opacity="1" fill="#042327" fill-opacity="1"></use></g></g></g></svg>